HIERARCHY
ROOT Hips
{
	OFFSET	0.00	0.00	0.00
	CHANNELS 6 Xposition Yposition Zposition Zrotation Xrotation Yrotation
	JOINT Spine
	{
		OFFSET	 0.00	0.01	 0.00
		CHANNELS 3 Zrotation Xrotation Yrotation
		JOINT Spine1
		{
			OFFSET	 0.00	 2.45913012437421	 0.00
			CHANNELS 3 Zrotation Xrotation Yrotation
            JOINT Neck
            {
                OFFSET	 0.00	 2.48462964506057	 0.00
                CHANNELS 3 Zrotation Xrotation Yrotation
                JOINT Head
                {
                    OFFSET	 0.00	 0.927524780924562	 0.00
                    CHANNELS 3 Zrotation Xrotation Yrotation
                    End Site 
                    {
                        OFFSET	 0.00	 1.14999962169752	 0.00
                    }
                }
            }
			JOINT LeftShoulder
			{
				OFFSET	 0.00	 2.48462964506057	 0.00
				CHANNELS 3 Zrotation Xrotation Yrotation
				JOINT LeftUpArm
				{
					OFFSET	 0.00	 1.24881979654096	 0.00
					CHANNELS 3 Zrotation Xrotation Yrotation
					JOINT LeftForeArm
					{
						OFFSET	 0.00	2.59758046908119	 0.00
						CHANNELS 3 Zrotation Xrotation Yrotation
						JOINT LeftHand
						{
							OFFSET	 0.00	2.45542024364365	 0.00
							CHANNELS 3 Zrotation Xrotation Yrotation
							JOINT LeftHandThumb 
							{
								OFFSET	 0.00	0.00	 0.00
								CHANNELS 3 Zrotation Xrotation Yrotation
								End Site
								{
									OFFSET	 0.00	0.00	1.00000003353624
								}
							}
							JOINT L_Wrist_End 
							{
								OFFSET	 0.00	0.99999967115358	 0.00
								CHANNELS 3 Zrotation Xrotation Yrotation
								End Site 
								{
									OFFSET	 0.00	 0.00	 0.00
								}
							}
						}
					}
				}
			}
			JOINT RightShoulder
			{
				OFFSET	 0.00	 2.48462964506057	 0.00
				CHANNELS 3 Zrotation Xrotation Yrotation
				JOINT RightUpArm
				{
					OFFSET	 0.00	 1.24881979654096	 0.00
					CHANNELS 3 Zrotation Xrotation Yrotation
					JOINT RightForeArm
					{
						OFFSET	 0.00	2.59758046908119	 0.00
						CHANNELS 3 Zrotation Xrotation Yrotation
						JOINT RightHand
						{
							OFFSET	 0.00	2.45542024364365	 0.00
							CHANNELS 3 Zrotation Xrotation Yrotation
							JOINT RightHandThumb 
							{
								OFFSET	 0.00	0.00	 0.00
								CHANNELS 3 Zrotation Xrotation Yrotation
								End Site
								{
									OFFSET	 0.00	0.00	1.00000003353624
								}
							}
							JOINT R_Wrist_End 
							{
								OFFSET	 0.00	0.99999967115358	 0.00
								CHANNELS 3 Zrotation Xrotation Yrotation
								End Site 
								{
									OFFSET	 0.00	 0.00	 0.00
								}
							}
						}
					}
				}
			}
		}
	}
	JOINT LeftUpLeg
	{
		OFFSET	 1.2719394002717	 0.00	 0.00
		CHANNELS 3 Zrotation Xrotation Yrotation
		JOINT LeftLowLeg
		{
			OFFSET	 0.00	-4.3429100912261	 0.00
			CHANNELS 3 Zrotation Xrotation Yrotation
			JOINT LeftFoot
			{
				OFFSET	 0.00	-4.48767017425826	 0.00
				CHANNELS 3 Zrotation Xrotation Yrotation
				JOINT LeftToeBase
                {
                    OFFSET	 0.00	0.00	 1.51507020887566
                    CHANNELS 3 Zrotation Xrotation Yrotation
                    End Site 
                    {
                        OFFSET	 0.00	0.00	 0.75000010571191
                    }
                }
			}
		}
	}
	JOINT RightUpLeg
	{
		OFFSET	 -1.2719393604653	 0.00	 0.00
		CHANNELS 3 Zrotation Xrotation Yrotation
		JOINT RightLowLeg
		{
			OFFSET	 0.00	-4.3429100912261	 0.00
			CHANNELS 3 Zrotation Xrotation Yrotation
			JOINT RightFoot
			{
				OFFSET	 0.00	-4.48767017425826	 0.00
				CHANNELS 3 Zrotation Xrotation Yrotation
				JOINT RightToeBase
                {
                    OFFSET	 0.00	0.00	 1.51507020887566
                    CHANNELS 3 Zrotation Xrotation Yrotation
                    End Site 
                    {
                        OFFSET	 0.00	0.00	 0.749999965609858
                    }
                }   
			}
		}
	}
}
MOTION 
Frames:	18 
Frame Time: 0.02 
 -0.43746299743652345 0.9804309844970703 9.376749877929688 -165.944 69.688 171.288 5.59129 -33.1722 -1.0932 -2.80808 9.07867 0.565318 13.5663 43.3979 -3.37637 -34.5224 -70.6549 -22.5325 -120.0118 -0.0646217 8.2103 -42.4136 3.72005 -329.424 0.0 21.3729 0.0 0.953835 -9.98054 23.0751 0.0 0.0 0.0 0.0 0.0 0.0 121.2237 -3.19716 -2.4724 44.7556 -0.56365 -26.7029 0.0 20.874 0.0 8.89508 -10.1044 -11.5219 0.0 0.0 0.0 0.0 0.0 0.0 -0.399026 -15.2622 -28.3006 0.0 5.68618 0.0 1.78449 -2.4088001 21.1968 0.0 -11.5001 0.0 8.50278 -13.1463 33.9802 0.0 4.08073 0.0 2.05429 2.3787003 -29.6858 0.0 -17.52871 0.0 
  -0.43639801025390623 0.9822949981689453 9.377069702148438 -165.918 69.7047 171.249 5.58304 -33.1939 -1.11461 -2.78937 9.14588 0.560647 13.6167 43.4765 -3.46404 -34.4153 -70.5269 -22.3235 -119.9821 -0.0656614 8.29154 -42.4226 3.76823 -329.477 0.0 21.3501 0.0 0.991077 -10.0017 23.0849 0.0 0.0 0.0 0.0 0.0 0.0 121.2245 -3.18343 -2.52201 44.7125 -0.543916 -26.6437 0.0 20.9352 0.0 8.88158 -10.0489 -11.4559 0.0 0.0 0.0 0.0 0.0 0.0 -0.398519 -15.2617 -28.2872 0.0 5.70276 0.0 1.78 -2.4092007 21.1875 0.0 -11.49912 0.0 8.5145 -13.153 34.0 0.0 4.1114 0.0 2.06983 2.3793 -29.6917 0.0 -17.53734 0.0 
  -0.43534000396728517 0.9847319793701171 9.377369995117187 -165.902 69.7278 171.202 5.56648 -33.2032 -1.13214 -2.7428 9.2385 0.581526 13.5934 43.516 -3.45726 -34.4113 -70.4626 -22.2864 -119.9742 -0.0365426 8.32073 -42.4417 3.77212 -329.558 0.0 21.3375 0.0 0.995705 -9.94265 23.0951 0.0 0.0 0.0 0.0 0.0 0.0 121.2052 -3.1682 -2.50048 44.699 -0.548025 -26.6039 0.0 20.9673 0.0 8.9188 -10.0655 -11.2154 0.0 0.0 0.0 0.0 0.0 0.0 -0.399776 -15.2555 -28.2873 0.0 5.7191 0.0 1.75382 -2.415701 21.2021 0.0 -11.47747 0.0 8.5253 -13.1569 34.0341 0.0 4.14033 0.0 2.0671 2.3895998 -29.7033 0.0 -17.52907 0.0 
  -0.4340330123901367 0.9881520080566406 9.377659912109374 -165.914 69.7541 171.166 5.55427 -33.1782 -1.14063 -2.70127 9.30845 0.600394 13.506 43.5553 -3.34254 -34.4627 -70.4591 -22.3546 -119.9757 -0.0374454 8.32163 -42.4618 3.77417 -329.606 0.0 21.3575 0.0 1.00086 -9.94559 23.1773 0.0 0.0 0.0 0.0 0.0 0.0 121.1896 -3.13691 -2.49048 44.6839 -0.554094 -26.5918 0.0 20.9887 0.0 9.00151 -10.0863 -10.7631 0.0 0.0 0.0 0.0 0.0 0.0 -0.410154 -15.2528 -28.256 0.0 5.73872 0.0 1.76064 -2.4104004 21.2147 0.0 -11.46801 0.0 8.5295 -13.1689 34.0632 0.0 4.17799 0.0 2.08412 2.3897 -29.6863 0.0 -17.53105 0.0 
  -0.4328499984741211 0.9914929962158203 9.377960205078125 -165.929 69.7711 171.142 5.53526 -33.1587 -1.15123 -2.66225 9.37171 0.626934 13.4585 43.5486 -3.28301 -34.4557 -70.454 -22.3588 -119.9663 -0.024864 8.32597 -42.4986 3.76275 -329.625 0.0 21.3869 0.0 1.04512 -9.89394 23.1781 0.0 0.0 0.0 0.0 0.0 0.0 121.1701 -3.10496 -2.50025 44.6898 -0.553687 -26.6044 0.0 20.9839 0.0 9.06455 -10.123 -10.816 0.0 0.0 0.0 0.0 0.0 0.0 -0.423035 -15.2632 -28.2236 0.0 5.76405 0.0 1.7555 -2.4064007 21.2111 0.0 -11.4743 0.0 8.52719 -13.1839 34.0662 0.0 4.19816 0.0 2.10266 2.3912 -29.6529 0.0 -17.5373 0.0 
  -0.43163700103759767 0.994635009765625 9.37833984375 -165.921 69.7833 171.118 5.52103 -33.1375 -1.15668 -2.6382 9.42773 0.649209 13.461 43.5222 -3.27513 -34.4506 -70.4802 -22.3417 -119.958 -0.00926302 8.32127 -42.5322 3.73899 -329.644 0.0 21.4325 0.0 1.05219 -9.88464 23.1114 0.0 0.0 0.0 0.0 0.0 0.0 121.1579 -3.07935 -2.52041 44.7057 -0.552675 -26.6305 0.0 20.9679 0.0 9.08797 -10.1427 -11.2128 0.0 0.0 0.0 0.0 0.0 0.0 -0.432176 -15.2753 -28.2345 0.0 5.7801 0.0 1.75866 -2.392599 21.2284 0.0 -11.49985 0.0 8.52271 -13.1914 34.0244 0.0 4.19704 0.0 2.0875 2.4182997 -29.6124 0.0 -17.52902 0.0 
  -0.43032299041748046 0.9976730346679688 9.3785498046875 -165.916 69.7886 171.097 5.52036 -33.1078 -1.14326 -2.63199 9.452 0.669202 13.4934 43.4908 -3.30667 -34.4427 -70.5105 -22.3263 -119.949 -0.00139613 8.33841 -42.5626 3.72202 -329.645 0.0 21.4892 0.0 1.05905 -9.84311 23.0139 0.0 0.0 0.0 0.0 0.0 0.0 121.1503 -3.05984 -2.55147 44.7246 -0.561552 -26.6916 0.0 20.9875 0.0 9.13257 -10.2884 -10.915 0.0 0.0 0.0 0.0 0.0 0.0 -0.437968 -15.2871 -28.2383 0.0 5.78309 0.0 1.7585 -2.3808002 21.2434 0.0 -11.4967 0.0 8.51335 -13.2007 33.9677 0.0 4.18479 0.0 2.09013 2.4397001 -29.5502 0.0 -17.539959 0.0 
  -0.42912700653076175 1.0002100372314453 9.37885009765625 -165.919 69.792 171.084 5.51852 -33.0948 -1.12933 -2.63448 9.49131 0.693745 13.5638 43.4504 -3.38505 -34.4238 -70.5452 -22.2802 -119.938 -0.00190989 8.34181 -42.6009 3.71006 -329.629 0.0 21.5442 0.0 1.10239 -9.88408 22.9429 0.0 0.0 0.0 0.0 0.0 0.0 121.1647 -3.03119 -2.58763 44.7243 -0.566653 -26.682 0.0 20.9928 0.0 9.27723 -10.4004 -10.5191 0.0 0.0 0.0 0.0 0.0 0.0 -0.443059 -15.297 -28.206 0.0 5.78058 0.0 1.74611 -2.3686008 21.2195 0.0 -11.49458 0.0 8.50214 -13.2082 33.9177 0.0 4.16892 0.0 2.08435 2.4638004 -29.4957 0.0 -17.52647 0.0 
  -0.4279119873046875 1.0022899627685546 9.379140014648437 -165.901 69.7986 171.051 5.53089 -33.0947 -1.10064 -2.64772 9.546 0.717677 13.636 43.4111 -3.46477 -34.4052 -70.5859 -22.2631 -119.919205 0.0109936 8.33896 -42.6554 3.70134 -329.618 0.0 21.5502 0.0 1.1507 -9.80739 22.768 0.0 0.0 0.0 0.0 0.0 0.0 121.1708 -3.00815 -2.61607 44.7534 -0.566696 -26.6095 0.0 20.9481 0.0 9.41766 -10.401 -10.4396 0.0 0.0 0.0 0.0 0.0 0.0 -0.437198 -15.3039 -28.1143 0.0 5.78352 0.0 1.74141 -2.3661995 21.1314 0.0 -11.49621 0.0 8.50076 -13.2111 33.9187 0.0 4.16411 0.0 2.09797 2.4771004 -29.485 0.0 -17.52035 0.0 
  -0.42707000732421874 1.0039900207519532 9.379290161132813 -165.882 69.7992 171.028 5.53131 -33.0922 -1.08881 -2.64947 9.57575 0.736318 13.6794 43.3909 -3.50601 -34.3782 -70.614 -22.2486 -119.915 0.0163101 8.34893 -42.6875 3.7176 -329.622 0.0 21.5434 0.0 1.18569 -9.78195 22.7805 0.0 0.0 0.0 0.0 0.0 0.0 121.1933 -3.0037 -2.62952 44.7373 -0.573296 -26.6194 0.0 20.9608 0.0 9.47909 -10.4365 -10.1247 0.0 0.0 0.0 0.0 0.0 0.0 -0.4314 -15.2941 -28.2224 0.0 5.75034 0.0 1.72504 -2.3495998 21.2339 0.0 -11.51663 0.0 8.50379 -13.2235 33.9045 0.0 4.17169 0.0 2.09435 2.4857998 -29.4684 0.0 -17.51783 0.0 
  -0.42629299163818357 1.0051699829101564 9.379459838867188 -165.838 69.8042 171.001 5.51934 -33.1017 -1.09226 -2.63793 9.61876 0.758529 13.7439 43.3673 -3.58972 -34.3606 -70.6271 -22.2425 -119.9155 0.0371539 8.36927 -42.723 3.73264 -329.684 0.0 21.5386 0.0 1.2048 -9.80981 22.7629 0.0 0.0 0.0 0.0 0.0 0.0 121.196 -3.00722 -2.64155 44.7525 -0.562005 -26.5584 0.0 20.9385 0.0 9.55878 -10.4637 -9.77378 0.0 0.0 0.0 0.0 0.0 0.0 -0.420815 -15.2901 -28.2316 0.0 5.73469 0.0 1.71805 -2.3430996 21.2197 0.0 -11.5003395 0.0 8.50826 -13.2218 33.8893 0.0 4.16892 0.0 2.11084 2.4867 -29.466 0.0 -17.50973 0.0 
  -0.4254940032958984 1.0063700103759765 9.379520263671875 -165.804 69.8065 170.97 5.51358 -33.1042 -1.08848 -2.62622 9.6444 0.778699 13.7857 43.3622 -3.63939 -34.3622 -70.6436 -22.2597 -119.9182 0.0366736 8.38829 -42.7577 3.74991 -329.748 0.0 21.5293 0.0 1.29321 -9.78986 22.7569 0.0 0.0 0.0 0.0 0.0 0.0 121.1961 -3.0206 -2.65164 44.7648 -0.547563 -26.5217 0.0 20.9183 0.0 9.56828 -10.4287 -9.48743 0.0 0.0 0.0 0.0 0.0 0.0 -0.410669 -15.2861 -28.2609 0.0 5.71872 0.0 1.69582 -2.3479004 21.2288 0.0 -11.48961 0.0 8.51714 -13.229 33.907 0.0 4.18027 0.0 2.12727 2.4866 -29.4818 0.0 -17.52101 0.0 
  -0.4243299865722656 1.0082099914550782 9.37969970703125 -165.758 69.8087 170.922 5.513 -33.1095 -1.08193 -2.60889 9.67717 0.796661 13.8218 43.3685 -3.68123 -34.379 -70.6596 -22.2888 -119.9191 0.0324379 8.3988 -42.8025 3.78122 -329.847 0.0 21.4887 0.0 1.32539 -9.75655 22.6017 0.0 0.0 0.0 0.0 0.0 0.0 121.2009 -3.02386 -2.65382 44.7645 -0.545346 -26.4639 0.0 20.9143 0.0 9.56487 -10.4096 -9.54838 0.0 0.0 0.0 0.0 0.0 0.0 -0.39168 -15.2806 -28.2832 0.0 5.69223 0.0 1.66687 -2.3465004 21.2249 0.0 -11.4865 0.0 8.53093 -13.2451 33.9225 0.0 4.20247 0.0 2.12947 2.4934998 -29.487 0.0 -17.51853 0.0 
  -0.42329700469970705 1.0104599761962891 9.379760131835937 -165.69 69.8087 170.858 5.51424 -33.1103 -1.07898 -2.58637 9.70926 0.80677 13.8487 43.3466 -3.72607 -34.4198 -70.6786 -22.3498 -119.9106 0.0312981 8.39442 -42.8483 3.80976 -329.919 0.0 21.4547 0.0 1.37083 -9.74821 22.5421 0.0 0.0 0.0 0.0 0.0 0.0 121.2063 -3.02238 -2.62847 44.7526 -0.557795 -26.407 0.0 20.9376 0.0 9.58108 -10.4263 -9.68295 0.0 0.0 0.0 0.0 0.0 0.0 -0.361429 -15.2729 -28.355 0.0 5.65114 0.0 1.58496 -2.3663006 21.2372 0.0 -11.4614105 0.0 8.55264 -13.2665 33.94 0.0 4.23141 0.0 2.1653 2.4806995 -29.4855 0.0 -17.51031 0.0 
  -0.42247299194335936 1.0124600219726563 9.380050048828124 -165.631 69.8256 170.797 5.51313 -33.1161 -1.08065 -2.56349 9.78774 0.818755 13.8215 43.2844 -3.70198 -34.5179 -70.7407 -22.5057 -119.900604 0.0364606 8.34567 -42.8772 3.81479 -329.96 0.0 21.4588 0.0 1.40447 -9.80339 22.595 0.0 0.0 0.0 0.0 0.0 0.0 121.1785 -3.00043 -2.54589 44.7832 -0.596689 -26.3829 0.0 20.9367 0.0 9.54469 -10.3737 -9.79857 0.0 0.0 0.0 0.0 0.0 0.0 -0.3303 -15.2495 -28.3439 0.0 5.61431 0.0 1.53164 -2.3666992 21.1796 0.0 -11.45691 0.0 8.57306 -13.2743 33.9414 0.0 4.26703 0.0 2.19864 2.4717999 -29.4666 0.0 -17.50361 0.0 
  -0.4217649841308594 1.0162899780273438 9.380910034179687 -165.472 69.9293 170.599 5.52807 -33.0004 -1.05303 -2.49501 9.89138 0.841997 13.749 43.079 -3.65819 -34.9231 -70.9387 -22.988 -119.8908 0.0647882 8.22563 -42.8879 3.77689 -329.92 0.0 21.492 0.0 1.4151 -9.77917 22.6622 0.0 0.0 0.0 0.0 0.0 0.0 121.0921 -2.96109 -2.43429 44.8503 -0.651887 -26.3902 0.0 20.9556 0.0 9.43038 -10.3254 -9.83392 0.0 0.0 0.0 0.0 0.0 0.0 -0.230876 -15.1106 -28.2842 0.0 5.49798 0.0 1.34021 -2.3922005 21.0218 0.0 -11.45813 0.0 8.62962 -13.2254 33.9558 0.0 4.34698 0.0 2.2484 2.4980001 -29.4194 0.0 -17.55929 0.0 
  -0.42208499908447267 1.017470016479492 9.3814599609375 -165.417 69.9908 170.501 5.53463 -32.9333 -1.03333 -2.46707 9.9463 0.861244 13.7779 42.8839 -3.73872 -35.0317 -71.0184 -23.0685 -119.881 0.0767406 8.1977 -42.8753 3.76608 -329.896 0.0 21.5482 0.0 1.43771 -9.82573 22.5804 0.0 0.0 0.0 0.0 0.0 0.0 121.0516 -2.91213 -2.41209 44.8757 -0.678137 -26.3972 0.0 20.9657 0.0 9.45562 -10.3027 -9.84663 0.0 0.0 0.0 0.0 0.0 0.0 -0.160056 -15.0035 -28.1587 0.0 5.38881 0.0 1.24751 -2.3780994 20.8434 0.0 -11.49792 0.0 8.65822 -13.1933 33.9441 0.0 4.39683 0.0 2.25916 2.5093002 -29.3545 0.0 -17.56596 0.0 
  -0.4232070159912109 1.019540023803711 9.382260131835938 -165.331 70.0854 170.359 5.53096 -32.8142 -1.01254 -2.42205 10.0203 0.896588 13.8006 42.5581 -3.79814 -35.1371 -71.1956 -23.2354 -119.8469 0.111092 8.17509 -42.8745 3.76285 -329.876 0.0 21.6085 0.0 1.43761 -9.81126 22.524 0.0 0.0 0.0 0.0 0.0 0.0 121.0001 -2.82862 -2.43722 44.8816 -0.699724 -26.4555 0.0 21.0198 0.0 9.46304 -10.2641 -9.77899 0.0 0.0 0.0 0.0 0.0 0.0 -0.0417382 -14.8207 -28.0705 0.0 5.18288 0.0 0.975385 -2.4276009 20.6549 0.0 -11.3588295 0.0 8.70153 -13.1388 33.9272 0.0 4.45732 0.0 2.28378 2.5359 -29.2713 0.0 -17.56016 0.0 
